<?xml version="1.0" encoding="UTF-8"?>
<svg version="1.1" xmlns="http://www.w3.org/2000/svg" width="205" height="211">
<path d="M0 0 C0 0.66 0 1.32 0 2 C0.72316406 2.25136719 1.44632813 2.50273437 2.19140625 2.76171875 C5.23025725 4.10151815 7.38146771 5.70064394 9.9375 7.8125 C10.81148437 8.534375 11.68546875 9.25625 12.5859375 10 C13.38257813 10.66 14.17921875 11.32 15 12 C16.010625 12.763125 17.02125 13.52625 18.0625 14.3125 C22.57839978 18.44406788 26.25763567 23.16966285 30 28 C30.62261719 28.79535156 31.24523437 29.59070312 31.88671875 30.41015625 C35.48980055 35.26014726 38.2943744 40.30688758 40.875 45.75 C41.1735791 46.37616211 41.4721582 47.00232422 41.77978516 47.64746094 C43.49733011 51.4150435 44.50849134 54.89149175 45 59 C45.99 59.33 46.98 59.66 48 60 C47.95875 61.0725 47.9175 62.145 47.875 63.25 C47.86303663 66.70143259 48.31180951 69.80955089 49 73.1875 C53.77727123 100.47637304 47.19593978 126.63009914 33 150 C30.52268522 153.52679541 27.85264393 156.77394131 25 160 C24.52304688 160.60714844 24.04609375 161.21429688 23.5546875 161.83984375 C8.49109899 180.81996528 -16.43384786 191.86370861 -40 195 C-66.13939187 196.72683676 -91.30080295 190.47454882 -111.8515625 173.66796875 C-114.29202143 171.49747209 -116.6623843 169.28038594 -119 167 C-119.886875 166.154375 -120.77375 165.30875 -121.6875 164.4375 C-122.8321875 163.2309375 -122.8321875 163.2309375 -124 162 C-124.51820312 161.46503906 -125.03640625 160.93007812 -125.5703125 160.37890625 C-144.60762496 139.84763429 -152.02033773 111.82196858 -151.13183594 84.41552734 C-149.69704789 58.12702182 -138.59916712 34.41975393 -120 16 C-119.44957031 15.41476563 -118.89914063 14.82953125 -118.33203125 14.2265625 C-86.47380728 -19.35151418 -38.98318428 -18.09933556 0 0 Z M-80 5 C-82.03887237 5.27184965 -84.08129703 5.51723201 -86.125 5.75 C-91.20803791 6.49750557 -94.43405013 7.3510906 -98.33203125 10.65234375 C-100.25495472 12.20599386 -102.24066731 13.24488064 -104.4375 14.375 C-109.14965706 16.92539429 -113.35289017 20.0547613 -117 24 C-117 24.66 -117 25.32 -117 26 C-117.66 26 -118.32 26 -119 26 C-123.59611065 34.99142035 -126.14012805 42.08901176 -126.09765625 52.3671875 C-126.0962413 53.04677521 -126.09482635 53.72636292 -126.09336853 54.42654419 C-126.08781518 56.57607612 -126.07527169 58.72550008 -126.0625 60.875 C-126.05747896 62.34114432 -126.05291711 63.80729029 -126.04882812 65.2734375 C-126.03786111 68.84899283 -126.02062919 72.42448586 -126 76 C-125.34 76.33 -124.68 76.66 -124 77 C-123.566875 77.7425 -123.13375 78.485 -122.6875 79.25 C-120.80838505 82.3122614 -118.56567436 84.50184339 -116 87 C-115.67 87.66 -115.34 88.32 -115 89 C-110.31425732 89.92499109 -105.75021896 90.12826866 -100.984375 90.1328125 C-100.00963982 90.13485939 -100.00963982 90.13485939 -99.01521301 90.13694763 C-96.92675497 90.13895473 -94.83844326 90.1327009 -92.75 90.125 C-92.04011932 90.12378143 -91.33023865 90.12256287 -90.59884644 90.12130737 C-81.91382784 90.10377328 -73.23780574 90.00920063 -64.5625 89.5625 C-63.78938477 89.52334473 -63.01626953 89.48418945 -62.21972656 89.44384766 C-58.81723189 89.50569347 -58.81723189 89.50569347 -56 88 C-54.42658522 87.89621268 -52.84854823 87.86147918 -51.27172852 87.85473633 C-50.26300186 87.84835648 -49.25427521 87.84197662 -48.21498108 87.83540344 C-47.11407639 87.83429062 -46.01317169 87.8331778 -44.87890625 87.83203125 C-43.18531227 87.82703865 -43.18531227 87.82703865 -41.45750427 87.82194519 C-39.05736703 87.81686767 -36.65722269 87.81453712 -34.25708008 87.81469727 C-30.60941607 87.8125279 -26.96206286 87.79442851 -23.31445312 87.77539062 C-20.98177186 87.77245333 -18.64908917 87.77047079 -16.31640625 87.76953125 C-14.69237633 87.75875298 -14.69237633 87.75875298 -13.03553772 87.74775696 C3.64419926 87.79723875 3.64419926 87.79723875 7.64842224 91.54133606 C8.0944429 92.02269516 8.54046356 92.50405426 9 93 C11.04100238 93.57017808 11.04100238 93.57017808 13.1875 93.6875 C14.445625 93.790625 15.70375 93.89375 17 94 C16.97679687 94.95261719 16.95359375 95.90523438 16.9296875 96.88671875 C16.91164062 98.14097656 16.89359375 99.39523438 16.875 100.6875 C16.85179687 101.92886719 16.82859375 103.17023438 16.8046875 104.44921875 C16.99287549 107.87047636 17.66003281 109.90617615 19 113 C20.29829493 123.032279 16.48414687 131.81452188 13 141 C12.65023242 142.32911682 12.31248362 143.66162678 12 145 C11.34 145 10.68 145 10 145 C10 145.66 10 146.32 10 147 C9.01 147 8.02 147 7 147 C5.96210419 148.64333504 4.96432076 150.31243867 4 152 C3.01 152.66 2.02 153.32 1 154 C1 154.66 1 155.32 1 156 C0.34 156 -0.32 156 -1 156 C-1 156.66 -1 157.32 -1 158 C-1.825 158.0825 -2.65 158.165 -3.5 158.25 C-6.50299325 158.89349855 -8.04711973 159.48676822 -10.625 160.9375 C-14.99169581 163.27650084 -19.28639646 163.84074611 -24.16796875 164.41015625 C-27.32450574 165.06758671 -29.40662606 166.09882459 -32 168 C-32 168.66 -32 169.32 -32 170 C-47.34326121 170.96977723 -62.62881893 171.11787716 -78 171 C-78 170.01 -78 169.02 -78 168 C-78.66 168 -79.32 168 -80 168 C-80 167.34 -80 166.68 -80 166 C-80.78375 165.773125 -81.5675 165.54625 -82.375 165.3125 C-83.24125 164.879375 -84.1075 164.44625 -85 164 C-85.268125 163.175 -85.53625 162.35 -85.8125 161.5 C-86.71885341 158.86574767 -86.71885341 158.86574767 -88.89453125 158.23046875 C-90.91169873 157.73942448 -92.95584785 157.36267216 -95 157 C-95.0928125 156.37351563 -95.185625 155.74703125 -95.28125 155.1015625 C-95.5184375 154.40804687 -95.755625 153.71453125 -96 153 C-98.30252483 151.93097061 -100.6372026 150.92824183 -103 150 C-103.495 149.01 -103.495 149.01 -104 148 C-104.928125 147.5978125 -104.928125 147.5978125 -105.875 147.1875 C-108.63028342 145.64778279 -109.44332782 143.6887974 -111 141 C-111.66 141 -112.32 141 -113 141 C-116.39589303 132.93475404 -116.30654742 125.61738853 -116 117 C-118.97 117 -121.94 117 -125 117 C-125.11755481 120.64555558 -125.18769812 124.29061474 -125.25 127.9375 C-125.28351563 128.95908203 -125.31703125 129.98066406 -125.3515625 131.03320312 C-125.44429643 138.28963345 -124.6982934 145.1406821 -119.45800781 150.60913086 C-118.97686523 151.06811768 -118.49572266 151.52710449 -118 152 C-117.505 152.721875 -117.01 153.44375 -116.5 154.1875 C-116.005 154.785625 -115.51 155.38375 -115 156 C-114.01 156 -113.02 156 -112 156 C-111.67 156.99 -111.34 157.98 -111 159 C-109.2675 159.7425 -109.2675 159.7425 -107.5 160.5 C-105.7675 161.2425 -105.7675 161.2425 -104 162 C-103.67 162.99 -103.34 163.98 -103 165 C-100.23545234 167.15241303 -100.23545234 167.15241303 -97.4375 167.375 C-96.633125 167.58125 -95.82875 167.7875 -95 168 C-94.3162955 169.32467746 -93.65035814 170.65863633 -93 172 C-90.46229997 173.28254644 -90.46229997 173.28254644 -88 174 C-88 174.66 -88 175.32 -88 176 C-87.34 176 -86.68 176 -86 176 C-86 176.99 -86 177.98 -86 179 C-82.75225673 180.62387163 -79.18495844 180.14167998 -75.6171875 180.1328125 C-74.34658981 180.13424759 -74.34658981 180.13424759 -73.05032349 180.13571167 C-71.24627611 180.13639376 -69.44222629 180.13453747 -67.63818359 180.13037109 C-64.93451059 180.12511568 -62.23101091 180.13026608 -59.52734375 180.13671875 C-41.57025499 180.70415579 -41.57025499 180.70415579 -24 178 C-24 177.34 -24 176.68 -24 176 C-20.42422529 174.42015772 -17.24572609 173.66221169 -13.375 173.1875 C-7.82686312 172.33710572 -3.29085821 170.60208402 1.72265625 168.12109375 C4 167 4 167 7 166 C7 165.34 7 164.68 7 164 C7.66 164 8.32 164 9 164 C13.31958679 160.25832682 13.31958679 160.25832682 15 155 C15.99 155 16.98 155 18 155 C18 154.34 18 153.68 18 153 C18.66 153 19.32 153 20 153 C23.39218213 148.57541462 24.53784831 143.28211867 26 138 C26.35449219 137.01 26.70898438 136.02 27.07421875 135 C28.66127135 129.43512797 28.28827465 123.60981816 28.25 117.875 C28.25773438 116.70839844 28.26546875 115.54179687 28.2734375 114.33984375 C28.27085937 113.21449219 28.26828125 112.08914062 28.265625 110.9296875 C28.26224121 109.40190674 28.26224121 109.40190674 28.25878906 107.84326172 C27.98748031 104.86244874 27.17344992 102.733792 26 100 C25.71664284 97.57007865 25.51196541 95.1300498 25.375 92.6875 C25.26285156 90.80611328 25.26285156 90.80611328 25.1484375 88.88671875 C25.09945312 87.93410156 25.05046875 86.98148437 25 86 C24.37351563 85.80664062 23.74703125 85.61328125 23.1015625 85.4140625 C22.28429687 85.15367188 21.46703125 84.89328125 20.625 84.625 C19.81289062 84.36976562 19.00078125 84.11453125 18.1640625 83.8515625 C16 83 16 83 14 81 C5.75124758 78.17912635 -3.21953386 78.72429669 -11.81640625 78.76953125 C-13.32429464 78.77072565 -14.83218379 78.77117566 -16.34007263 78.7709198 C-19.47749586 78.77247345 -22.61480316 78.78068355 -25.75219727 78.79418945 C-29.78072696 78.81131032 -33.80913137 78.81499945 -37.83769321 78.81424427 C-40.94051822 78.81451532 -44.04331565 78.8199839 -47.14613152 78.82724571 C-48.63295216 78.83043244 -50.11977593 78.8323998 -51.60659981 78.83313942 C-53.67211447 78.83529549 -55.7374929 78.84401968 -57.80297852 78.85473633 C-58.97860855 78.85854813 -60.15423859 78.86235992 -61.36549377 78.86628723 C-63.92452008 78.70106837 -63.92452008 78.70106837 -65 80 C-67.71484313 80.24932233 -70.4035396 80.43024262 -73.125 80.5625 C-73.95362549 80.6049585 -74.78225098 80.64741699 -75.63598633 80.69116211 C-86.08590618 81.17120742 -96.5420563 81.09169922 -107 81 C-107.2784375 80.21753906 -107.556875 79.43507813 -107.84375 78.62890625 C-109.27981713 75.36379416 -111.21151795 74.16107359 -114 72 C-115.3125 69.75 -115.3125 69.75 -116 68 C-116.66 68 -117.32 68 -118 68 C-116.9936923 51.2297761 -115.42616044 39.04313036 -103.59765625 26.27734375 C-100.86683794 23.88325792 -98.27406075 22.5371585 -95 21 C-93.58870535 20.00065081 -92.19176081 18.98061601 -90.8125 17.9375 C-83.68999314 13.10522682 -75.41759536 12.53235581 -67 13 C-66.505 13.495 -66.505 13.495 -66 14 C-64.46560039 14.21475256 -62.92285449 14.37067611 -61.37890625 14.5 C-60.44369141 14.5825 -59.50847656 14.665 -58.54492188 14.75 C-57.56072266 14.8325 -56.57652344 14.915 -55.5625 15 C-53.62598722 15.16296754 -51.68976712 15.32946305 -49.75390625 15.5 C-48.89095947 15.5721875 -48.0280127 15.644375 -47.13891602 15.71875 C-45 16 -45 16 -43 17 C-40.45384991 17.23172827 -37.92603775 17.41894529 -35.375 17.5625 C-34.66859375 17.60568359 -33.9621875 17.64886719 -33.234375 17.69335938 C-31.48981463 17.79944751 -29.74493303 17.90022889 -28 18 C-28 18.99 -28 19.98 -28 21 C-24.17010894 22.80230168 -21.21878192 23.19622241 -17 23 C-17 23.99 -17 24.98 -17 26 C-16.34 26 -15.68 26 -15 26 C-15 26.66 -15 27.32 -15 28 C-14.05125 28.226875 -13.1025 28.45375 -12.125 28.6875 C-9 30 -9 30 -7.875 32.5 C-7.58625 33.325 -7.2975 34.15 -7 35 C-4.98330173 36.13350534 -4.98330173 36.13350534 -3 37 C-2.67 37.99 -2.34 38.98 -2 40 C-1.2575 40.28875 -0.515 40.5775 0.25 40.875 C3 42 3 42 5.25 44.625 C8.75532353 47.65232487 10.74145439 47.43074893 15.20703125 47.17578125 C15.79871094 47.11777344 16.39039063 47.05976562 17 47 C17.50675587 41.68989705 17.50675587 41.68989705 15.625 37 C14.03412093 35.82530086 14.03412093 35.82530086 12 36 C11.01 34.02 11.01 34.02 10 32 C8.68 32 7.36 32 6 32 C5.67 30.68 5.34 29.36 5 28 C4.38125 27.938125 3.7625 27.87625 3.125 27.8125 C2.42375 27.544375 1.7225 27.27625 1 27 C0.28272222 25.35448038 -0.38325228 23.68577711 -1 22 C-3.81509993 19.7226499 -3.81509993 19.7226499 -7 20 C-7 19.34 -7 18.68 -7 18 C-7.66 18 -8.32 18 -9 18 C-9 17.01 -9 16.02 -9 15 C-12.63 14.34 -16.26 13.68 -20 13 C-20 12.01 -20 11.02 -20 10 C-22.80466134 8.59766933 -25.37796106 8.69340064 -28.5 8.5 C-34.77777778 8.11111111 -34.77777778 8.11111111 -37 7 C-38.5797773 6.79227218 -40.16607612 6.63282567 -41.75390625 6.5 C-43.15866211 6.37625 -43.15866211 6.37625 -44.59179688 6.25 C-46.57614443 6.08300691 -48.56051959 5.91634151 -50.54492188 5.75 C-51.48013672 5.6675 -52.41535156 5.585 -53.37890625 5.5 C-54.2407251 5.4278125 -55.10254395 5.355625 -55.99047852 5.28125 C-58 5 -58 5 -59 4 C-60.47652664 3.90119203 -61.95767236 3.86920755 -63.4375 3.8671875 C-64.33210938 3.86589844 -65.22671875 3.86460938 -66.1484375 3.86328125 C-67.55996094 3.86908203 -67.55996094 3.86908203 -69 3.875 C-69.94101563 3.87113281 -70.88203125 3.86726563 -71.8515625 3.86328125 C-73.19347656 3.86521484 -73.19347656 3.86521484 -74.5625 3.8671875 C-75.80193359 3.86887939 -75.80193359 3.86887939 -77.06640625 3.87060547 C-79.00679039 3.78735193 -79.00679039 3.78735193 -80 5 Z " fill="#000000" transform="translate(152,13)"/>
</svg>
